<svg xmlns="http://www.w3.org/2000/svg" xmlns:xlink="http://www.w3.org/1999/xlink" viewBox="0 0 127.8 128"><defs><style>.cls-1,.cls-2,.cls-3,.cls-4,.cls-5,.cls-6{fill-rule:evenodd;}.cls-1{fill:url(#radial-gradient);}.cls-2{fill:url(#radial-gradient-30);}.cls-3{fill:url(#radial-gradient-31);}.cls-4{fill:url(#radial-gradient-64);}.cls-5{fill:#fff;}.cls-6{fill:url(#radial-gradient-65);}</style><radialGradient id="radial-gradient" cx="137" cy="84.61" r="0.5" gradientUnits="userSpaceOnUse"><stop offset="0" stop-color="#ff7d34"/><stop offset="1"/></radialGradient><radialGradient id="radial-gradient-30" cx="126.45" cy="100.11" r="0.25" xlink:href="#radial-gradient"/><radialGradient id="radial-gradient-31" cx="23.23" cy="-3.12" r="0.25" xlink:href="#radial-gradient"/><radialGradient id="radial-gradient-64" cx="240.25" cy="187.86" xlink:href="#radial-gradient"/><radialGradient id="radial-gradient-65" cx="33.35" cy="188.26" xlink:href="#radial-gradient"/></defs><g id="Layer_2" data-name="Layer 2"><g id="Layer_1-2" data-name="Layer 1"><path class="cls-1" d="M102.3,25.4a2.21,2.21,0,0,1,0-3.4,2.87,2.87,0,0,1,3.7,0,2.21,2.21,0,0,1,0,3.4,3.12,3.12,0,0,1-1.8.7A2,2,0,0,1,102.3,25.4Z"/><path class="cls-1" d="M95.9,32.3a2.41,2.41,0,0,1,0-3.4,2.48,2.48,0,0,1,3.4,0,2.4,2.4,0,0,1-3.4,3.4Z"/><path class="cls-1" d="M88.9,38.9a2.41,2.41,0,0,1-.7-1.7,2.61,2.61,0,0,1,.7-1.7,2.48,2.48,0,0,1,3.4,0,2.41,2.41,0,0,1,.7,1.7,2.61,2.61,0,0,1-.7,1.7,2.19,2.19,0,0,1-1.7.7A2.41,2.41,0,0,1,88.9,38.9Z"/><path class="cls-1" d="M82.2,45.6a2.14,2.14,0,0,1-.8-1.7,2.29,2.29,0,0,1,.8-1.7,2.87,2.87,0,0,1,3.7,0,2.21,2.21,0,0,1,0,3.4,2.57,2.57,0,0,1-1.8.7A2.4,2.4,0,0,1,82.2,45.6Z"/><path class="cls-1" d="M75.8,52.3a2.06,2.06,0,0,1-.7-1.7,2.61,2.61,0,0,1,.7-1.7,2.48,2.48,0,0,1,3.4,0,2.06,2.06,0,0,1,.7,1.7,2.41,2.41,0,0,1-.7,1.7,2.06,2.06,0,0,1-1.7.7A1.69,1.69,0,0,1,75.8,52.3Z"/><path class="cls-1" d="M68.1,57.3a2.61,2.61,0,0,1,.7-1.7,2.48,2.48,0,0,1,3.4,0,2.19,2.19,0,0,1,.7,1.7,2.61,2.61,0,0,1-.7,1.7,2.41,2.41,0,0,1-1.7.7,2.61,2.61,0,0,1-1.7-.7A2.06,2.06,0,0,1,68.1,57.3Z"/><path class="cls-1" d="M55.6,72.1a2.41,2.41,0,0,1-.7-1.7,2.61,2.61,0,0,1,.7-1.7,2.48,2.48,0,0,1,3.4,0,2.19,2.19,0,0,1,.7,1.7,2.61,2.61,0,0,1-.7,1.7,2.06,2.06,0,0,1-1.7.7A1.77,1.77,0,0,1,55.6,72.1Z"/><path class="cls-1" d="M48.7,78.8a2.14,2.14,0,0,1-.8-1.7,2.29,2.29,0,0,1,.8-1.7,2.87,2.87,0,0,1,3.7,0,2.21,2.21,0,0,1,0,3.4,2.57,2.57,0,0,1-1.8.7A2.17,2.17,0,0,1,48.7,78.8Z"/><path class="cls-1" d="M42.2,85.6a2.41,2.41,0,0,1,0-3.4,2.48,2.48,0,0,1,3.4,0,2.41,2.41,0,0,1,.7,1.7,2.61,2.61,0,0,1-.7,1.7,2.19,2.19,0,0,1-1.7.7A2.84,2.84,0,0,1,42.2,85.6Z"/><path class="cls-1" d="M35.5,92.3a2.06,2.06,0,0,1-.7-1.7,2.61,2.61,0,0,1,.7-1.7,2.48,2.48,0,0,1,3.4,0,2.61,2.61,0,0,1,.7,1.7,2.41,2.41,0,0,1-.7,1.7,2.41,2.41,0,0,1-3.4,0Z"/><path class="cls-1" d="M28.6,99a2.14,2.14,0,0,1-.8-1.7,2.29,2.29,0,0,1,.8-1.7,2.61,2.61,0,0,1,3.5,0,2.29,2.29,0,0,1,.8,1.7,2.14,2.14,0,0,1-.8,1.7,3.12,3.12,0,0,1-1.8.7A2.06,2.06,0,0,1,28.6,99Z"/><path class="cls-1" d="M22,105.7a2.19,2.19,0,0,1-.7-1.7,2.61,2.61,0,0,1,.7-1.7,2.48,2.48,0,0,1,3.4,0,2.19,2.19,0,0,1,.7,1.7,2.61,2.61,0,0,1-.7,1.7,2.41,2.41,0,0,1-1.7.7A2.24,2.24,0,0,1,22,105.7Z"/><path class="cls-1" d="M25.4,25.4a2.41,2.41,0,0,0,0-3.4A2.48,2.48,0,0,0,22,22a2.19,2.19,0,0,0-.7,1.7,2.61,2.61,0,0,0,.7,1.7,2.41,2.41,0,0,0,1.7.7A1.62,1.62,0,0,0,25.4,25.4Z"/><path class="cls-1" d="M32.1,32.3a2.21,2.21,0,0,0,0-3.4,2.87,2.87,0,0,0-3.7,0,2.21,2.21,0,0,0,0,3.4,3.12,3.12,0,0,0,1.8.7A4,4,0,0,0,32.1,32.3Z"/><path class="cls-1" d="M38.9,38.9a2.41,2.41,0,0,0,.7-1.7,2.61,2.61,0,0,0-.7-1.7,2.48,2.48,0,0,0-3.4,0,2.41,2.41,0,0,0-.7,1.7,2.61,2.61,0,0,0,.7,1.7,2.19,2.19,0,0,0,1.7.7A2.84,2.84,0,0,0,38.9,38.9Z"/><path class="cls-1" d="M45.6,45.6a2.41,2.41,0,0,0,.7-1.7,2.61,2.61,0,0,0-.7-1.7,2.48,2.48,0,0,0-3.4,0,2.41,2.41,0,0,0,0,3.4,2.19,2.19,0,0,0,1.7.7A2,2,0,0,0,45.6,45.6Z"/><path class="cls-1" d="M52.2,52.3a2.14,2.14,0,0,0,.8-1.7,2.29,2.29,0,0,0-.8-1.7,2.61,2.61,0,0,0-3.5,0,2.21,2.21,0,0,0,0,3.4,2.57,2.57,0,0,0,1.8.7A1.69,1.69,0,0,0,52.2,52.3Z"/><path class="cls-1" d="M59.7,57.3a2.61,2.61,0,0,0-.7-1.7,2.48,2.48,0,0,0-3.4,0,2.19,2.19,0,0,0-.7,1.7,2.61,2.61,0,0,0,.7,1.7,2.41,2.41,0,0,0,1.7.7A2.61,2.61,0,0,0,59,59,2.06,2.06,0,0,0,59.7,57.3Z"/><path class="cls-1" d="M65.7,65.8a2.19,2.19,0,0,0,.7-1.7,2.61,2.61,0,0,0-.7-1.7,2.48,2.48,0,0,0-3.4,0,2.19,2.19,0,0,0-.7,1.7,2.61,2.61,0,0,0,.7,1.7,2.41,2.41,0,0,0,3.4,0Z"/><path class="cls-1" d="M72.4,72.1a2.14,2.14,0,0,0,.8-1.7,2.29,2.29,0,0,0-.8-1.7,2.61,2.61,0,0,0-3.5,0,2.21,2.21,0,0,0,0,3.4,2.57,2.57,0,0,0,1.8.7A1.84,1.84,0,0,0,72.4,72.1Z"/><path class="cls-1" d="M79.2,78.8a2.41,2.41,0,0,0,.7-1.7,2.61,2.61,0,0,0-.7-1.7,2.48,2.48,0,0,0-3.4,0,2.41,2.41,0,0,0,0,3.4,2.19,2.19,0,0,0,1.7.7A2.12,2.12,0,0,0,79.2,78.8Z"/><path class="cls-1" d="M85.9,85.6a2.41,2.41,0,0,0,0-3.4,2.48,2.48,0,0,0-3.4,0,2.41,2.41,0,0,0-.7,1.7,2.61,2.61,0,0,0,.7,1.7,2.19,2.19,0,0,0,1.7.7A2.61,2.61,0,0,0,85.9,85.6Z"/><path class="cls-1" d="M92.2,92.3a2.06,2.06,0,0,0,.7-1.7,2.61,2.61,0,0,0-.7-1.7,2.48,2.48,0,0,0-3.4,0,2.61,2.61,0,0,0-.7,1.7,2.41,2.41,0,0,0,.7,1.7,2.41,2.41,0,0,0,3.4,0Z"/><path class="cls-1" d="M99.3,99a2.06,2.06,0,0,0,.7-1.7,2.61,2.61,0,0,0-.7-1.7,2.48,2.48,0,0,0-3.4,0,2.19,2.19,0,0,0-.7,1.7,2.39,2.39,0,0,0,2.4,2.4A2.06,2.06,0,0,0,99.3,99Z"/><path class="cls-1" d="M106,105.7a2.21,2.21,0,0,0,0-3.4,2.61,2.61,0,0,0-3.5,0,2.21,2.21,0,0,0,0,3.4,3.12,3.12,0,0,0,1.8.7A2.24,2.24,0,0,0,106,105.7Z"/><path class="cls-1" d="M41.3,27.3a41.47,41.47,0,0,1,45.2,0l14.4-14.4C89.6,4.3,77.4,0,63.9,0A58.62,58.62,0,0,0,27,12.9Z"/><path class="cls-1" d="M26.9,86.4A39.8,39.8,0,0,1,20.1,64a39.12,39.12,0,0,1,6.8-22.4L12.6,27.3A59,59,0,0,0,0,64.1,59.63,59.63,0,0,0,12.7,101Z"/><path class="cls-1" d="M86.4,100.7A40.19,40.19,0,0,1,64,107.8a38.35,38.35,0,0,1-22.7-7L26.9,115.1A58,58,0,0,0,64,128c13.5-.1,25.7-4.5,36.7-12.9Z"/><path class="cls-1" d="M100.5,41.4a39.1,39.1,0,0,1,6.8,22.8,40.19,40.19,0,0,1-6.8,22l14.4,14.3c8.5-11,12.9-23.2,12.9-36.6a58,58,0,0,0-12.9-37.1Z"/><path class="cls-2" d="M115.7,110.4a5,5,0,1,1-5,5A5.07,5.07,0,0,1,115.7,110.4Z"/><path class="cls-3" d="M12.48,7.18a5,5,0,1,1-5.05,5A5.07,5.07,0,0,1,12.48,7.18Z"/><path class="cls-1" d="M115.7,2.2a10.1,10.1,0,1,1-10,10.1A10.05,10.05,0,0,1,115.7,2.2Z"/><path class="cls-1" d="M102.3,25.4a2.21,2.21,0,0,1,0-3.4,2.87,2.87,0,0,1,3.7,0,2.21,2.21,0,0,1,0,3.4,3.12,3.12,0,0,1-1.8.7A2,2,0,0,1,102.3,25.4Z"/><path class="cls-1" d="M95.9,32.3a2.41,2.41,0,0,1,0-3.4,2.48,2.48,0,0,1,3.4,0,2.4,2.4,0,0,1-3.4,3.4Z"/><path class="cls-1" d="M88.9,38.9a2.41,2.41,0,0,1-.7-1.7,2.61,2.61,0,0,1,.7-1.7,2.48,2.48,0,0,1,3.4,0,2.41,2.41,0,0,1,.7,1.7,2.61,2.61,0,0,1-.7,1.7,2.19,2.19,0,0,1-1.7.7A2.41,2.41,0,0,1,88.9,38.9Z"/><path class="cls-1" d="M82.2,45.6a2.14,2.14,0,0,1-.8-1.7,2.29,2.29,0,0,1,.8-1.7,2.87,2.87,0,0,1,3.7,0,2.21,2.21,0,0,1,0,3.4,2.57,2.57,0,0,1-1.8.7A2.4,2.4,0,0,1,82.2,45.6Z"/><path class="cls-1" d="M75.8,52.3a2.06,2.06,0,0,1-.7-1.7,2.61,2.61,0,0,1,.7-1.7,2.48,2.48,0,0,1,3.4,0,2.06,2.06,0,0,1,.7,1.7,2.41,2.41,0,0,1-.7,1.7,2.06,2.06,0,0,1-1.7.7A1.69,1.69,0,0,1,75.8,52.3Z"/><path class="cls-1" d="M68.1,57.3a2.61,2.61,0,0,1,.7-1.7,2.48,2.48,0,0,1,3.4,0,2.19,2.19,0,0,1,.7,1.7,2.61,2.61,0,0,1-.7,1.7,2.41,2.41,0,0,1-1.7.7,2.61,2.61,0,0,1-1.7-.7A2.06,2.06,0,0,1,68.1,57.3Z"/><path class="cls-1" d="M55.6,72.1a2.41,2.41,0,0,1-.7-1.7,2.61,2.61,0,0,1,.7-1.7,2.48,2.48,0,0,1,3.4,0,2.19,2.19,0,0,1,.7,1.7,2.61,2.61,0,0,1-.7,1.7,2.06,2.06,0,0,1-1.7.7A1.77,1.77,0,0,1,55.6,72.1Z"/><path class="cls-1" d="M48.7,78.8a2.14,2.14,0,0,1-.8-1.7,2.29,2.29,0,0,1,.8-1.7,2.87,2.87,0,0,1,3.7,0,2.21,2.21,0,0,1,0,3.4,2.57,2.57,0,0,1-1.8.7A2.17,2.17,0,0,1,48.7,78.8Z"/><path class="cls-1" d="M42.2,85.6a2.41,2.41,0,0,1,0-3.4,2.48,2.48,0,0,1,3.4,0,2.41,2.41,0,0,1,.7,1.7,2.61,2.61,0,0,1-.7,1.7,2.19,2.19,0,0,1-1.7.7A2.84,2.84,0,0,1,42.2,85.6Z"/><path class="cls-1" d="M35.5,92.3a2.06,2.06,0,0,1-.7-1.7,2.61,2.61,0,0,1,.7-1.7,2.48,2.48,0,0,1,3.4,0,2.61,2.61,0,0,1,.7,1.7,2.41,2.41,0,0,1-.7,1.7,2.41,2.41,0,0,1-3.4,0Z"/><path class="cls-1" d="M28.6,99a2.14,2.14,0,0,1-.8-1.7,2.29,2.29,0,0,1,.8-1.7,2.61,2.61,0,0,1,3.5,0,2.29,2.29,0,0,1,.8,1.7,2.14,2.14,0,0,1-.8,1.7,3.12,3.12,0,0,1-1.8.7A2.06,2.06,0,0,1,28.6,99Z"/><path class="cls-1" d="M22,105.7a2.19,2.19,0,0,1-.7-1.7,2.61,2.61,0,0,1,.7-1.7,2.48,2.48,0,0,1,3.4,0,2.19,2.19,0,0,1,.7,1.7,2.61,2.61,0,0,1-.7,1.7,2.41,2.41,0,0,1-1.7.7A2.24,2.24,0,0,1,22,105.7Z"/><path class="cls-1" d="M25.4,25.4a2.41,2.41,0,0,0,0-3.4A2.48,2.48,0,0,0,22,22a2.19,2.19,0,0,0-.7,1.7,2.61,2.61,0,0,0,.7,1.7,2.41,2.41,0,0,0,1.7.7A1.62,1.62,0,0,0,25.4,25.4Z"/><path class="cls-1" d="M32.1,32.3a2.21,2.21,0,0,0,0-3.4,2.87,2.87,0,0,0-3.7,0,2.21,2.21,0,0,0,0,3.4,3.12,3.12,0,0,0,1.8.7A4,4,0,0,0,32.1,32.3Z"/><path class="cls-1" d="M38.9,38.9a2.41,2.41,0,0,0,.7-1.7,2.61,2.61,0,0,0-.7-1.7,2.48,2.48,0,0,0-3.4,0,2.41,2.41,0,0,0-.7,1.7,2.61,2.61,0,0,0,.7,1.7,2.19,2.19,0,0,0,1.7.7A2.84,2.84,0,0,0,38.9,38.9Z"/><path class="cls-1" d="M45.6,45.6a2.41,2.41,0,0,0,.7-1.7,2.61,2.61,0,0,0-.7-1.7,2.48,2.48,0,0,0-3.4,0,2.41,2.41,0,0,0,0,3.4,2.19,2.19,0,0,0,1.7.7A2,2,0,0,0,45.6,45.6Z"/><path class="cls-1" d="M52.2,52.3a2.14,2.14,0,0,0,.8-1.7,2.29,2.29,0,0,0-.8-1.7,2.61,2.61,0,0,0-3.5,0,2.21,2.21,0,0,0,0,3.4,2.57,2.57,0,0,0,1.8.7A1.69,1.69,0,0,0,52.2,52.3Z"/><path class="cls-1" d="M59.7,57.3a2.61,2.61,0,0,0-.7-1.7,2.48,2.48,0,0,0-3.4,0,2.19,2.19,0,0,0-.7,1.7,2.61,2.61,0,0,0,.7,1.7,2.41,2.41,0,0,0,1.7.7A2.61,2.61,0,0,0,59,59,2.06,2.06,0,0,0,59.7,57.3Z"/><path class="cls-1" d="M65.7,65.8a2.19,2.19,0,0,0,.7-1.7,2.61,2.61,0,0,0-.7-1.7,2.48,2.48,0,0,0-3.4,0,2.19,2.19,0,0,0-.7,1.7,2.61,2.61,0,0,0,.7,1.7,2.41,2.41,0,0,0,3.4,0Z"/><path class="cls-1" d="M72.4,72.1a2.14,2.14,0,0,0,.8-1.7,2.29,2.29,0,0,0-.8-1.7,2.61,2.61,0,0,0-3.5,0,2.21,2.21,0,0,0,0,3.4,2.57,2.57,0,0,0,1.8.7A1.84,1.84,0,0,0,72.4,72.1Z"/><path class="cls-1" d="M79.2,78.8a2.41,2.41,0,0,0,.7-1.7,2.61,2.61,0,0,0-.7-1.7,2.48,2.48,0,0,0-3.4,0,2.41,2.41,0,0,0,0,3.4,2.19,2.19,0,0,0,1.7.7A2.12,2.12,0,0,0,79.2,78.8Z"/><path class="cls-1" d="M85.9,85.6a2.41,2.41,0,0,0,0-3.4,2.48,2.48,0,0,0-3.4,0,2.41,2.41,0,0,0-.7,1.7,2.61,2.61,0,0,0,.7,1.7,2.19,2.19,0,0,0,1.7.7A2.61,2.61,0,0,0,85.9,85.6Z"/><path class="cls-1" d="M92.2,92.3a2.06,2.06,0,0,0,.7-1.7,2.61,2.61,0,0,0-.7-1.7,2.48,2.48,0,0,0-3.4,0,2.61,2.61,0,0,0-.7,1.7,2.41,2.41,0,0,0,.7,1.7,2.41,2.41,0,0,0,3.4,0Z"/><path class="cls-1" d="M99.3,99a2.06,2.06,0,0,0,.7-1.7,2.61,2.61,0,0,0-.7-1.7,2.48,2.48,0,0,0-3.4,0,2.19,2.19,0,0,0-.7,1.7,2.39,2.39,0,0,0,2.4,2.4A2.06,2.06,0,0,0,99.3,99Z"/><path class="cls-1" d="M106,105.7a2.21,2.21,0,0,0,0-3.4,2.61,2.61,0,0,0-3.5,0,2.21,2.21,0,0,0,0,3.4,3.12,3.12,0,0,0,1.8.7A2.24,2.24,0,0,0,106,105.7Z"/><path class="cls-1" d="M41.3,27.3a41.47,41.47,0,0,1,45.2,0l14.4-14.4C89.6,4.3,77.4,0,63.9,0A58.62,58.62,0,0,0,27,12.9Z"/><path class="cls-1" d="M26.9,86.4A39.8,39.8,0,0,1,20.1,64a39.12,39.12,0,0,1,6.8-22.4L12.6,27.3A59,59,0,0,0,0,64.1,59.63,59.63,0,0,0,12.7,101Z"/><path class="cls-1" d="M86.4,100.7A40.19,40.19,0,0,1,64,107.8a38.35,38.35,0,0,1-22.7-7L26.9,115.1A58,58,0,0,0,64,128c13.5-.1,25.7-4.5,36.7-12.9Z"/><path class="cls-1" d="M100.5,41.4a39.1,39.1,0,0,1,6.8,22.8,40.19,40.19,0,0,1-6.8,22l14.4,14.3c8.5-11,12.9-23.2,12.9-36.6a58,58,0,0,0-12.9-37.1Z"/><path class="cls-1" d="M115.7,2.2a10.1,10.1,0,1,1-10,10.1A10.05,10.05,0,0,1,115.7,2.2Z"/><path class="cls-1" d="M12.3,2.2a10.12,10.12,0,0,1,10.1,10,10.1,10.1,0,1,1-10.1-10Zm0,2.08a8,8,0,0,1,8,7.92,8,8,0,1,1-8-7.92Z"/><path class="cls-4" d="M115.55,105.45a10,10,0,1,1-10.1,10A10.12,10.12,0,0,1,115.55,105.45Zm0,2.08a7.92,7.92,0,1,1-8,7.92A8,8,0,0,1,115.55,107.53Z"/><path class="cls-5" d="M115.7,7.25a5.05,5.05,0,1,1-5,5.05A5.07,5.07,0,0,1,115.7,7.25Z"/><path class="cls-6" d="M12.05,105.85a10.1,10.1,0,1,1-10,10.1A10.05,10.05,0,0,1,12.05,105.85Z"/><path class="cls-6" d="M12.05,105.85a10.1,10.1,0,1,1-10,10.1A10.05,10.05,0,0,1,12.05,105.85Z"/><path class="cls-5" d="M12.05,110.9A5,5,0,1,1,7,116,5.07,5.07,0,0,1,12.05,110.9Z"/></g></g></svg>