<svg xmlns="http://www.w3.org/2000/svg" viewBox="0 0 256.26 256.26"><g id="Layer_2" data-name="Layer 2"><g id="Layer_1-2" data-name="Layer 1"><path d="M128.13,0h0A128.14,128.14,0,0,1,256.26,128.13h0A128.14,128.14,0,0,1,128.13,256.26h0A128.14,128.14,0,0,1,0,128.13H0A128.14,128.14,0,0,1,128.13,0Z" style="fill:#f60"/><path d="M232.37,126.06A103.15,103.15,0,1,1,28.2,105.14H71.75S60.05,99.82,48,102.48c4.28-4.42-10.54-5.71-10.15,0a11.7,11.7,0,0,0-8.57-1.84A102.74,102.74,0,0,1,51.85,57.86h66.84s-16.16-4.06-28-2.77c-4.53-2.77-9.83.46-9.83.46s-5.08-5.95-13-1.7c-2.43-.73-6.36-1.05-11.18-1.1a103.11,103.11,0,0,1,159.59,18c-3.43-.21-8.63.11-12.39,3.27,1.16-5.62-8.13-6.28-8.42-1C185.88,70.1,172,75.87,172,75.87h47.4A102.52,102.52,0,0,1,232.37,126.06Z" style="fill:#ff0"/><polygon points="207.39 220.54 129.22 241.53 115.55 237.85 107.83 235.78 51.06 220.54 78.08 204.06 79.22 203.36 87.08 198.57 97.77 192.05 129.22 199.17 160.68 192.05 172 198.96 179.22 203.36 179.6 203.6 207.39 220.54" style="fill:#402843"/><polygon points="179.22 203.36 151.22 210.89 151.21 210.89 129.22 216.79 100.42 209.06 79.22 203.36 87.08 198.57 97.77 192.05 129.22 199.17 160.68 192.05 172 198.96 179.22 203.36" style="fill:#3f244c;opacity:0.20000000298023224;isolation:isolate"/><path d="M181.39,153.67c-.28,2.38-.64,4.79-1.11,7.21-.11.59-.22,1.17-.35,1.76-.19.94-.41,1.87-.64,2.8-2.17,8.95-5.73,17.55-11.08,23.76-9.49,11-23.16,15.49-31.53,17.29a35.74,35.74,0,0,1-6.52.79h-1.88a35.74,35.74,0,0,1-6.52-.79c-8.37-1.8-22-6.3-31.52-17.28h0c-5.3-6.16-8.84-14.67-11-23.53-.25-1-.47-2-.69-3-.19-.83-.34-1.66-.49-2.5h0c-.42-2.16-.74-4.32-1-6.46-1.33-11.39-.66-21.87,1.14-27.06a71.31,71.31,0,0,1,3.44-8.29,54.41,54.41,0,0,1,9.87-14c7.79-7.93,19.65-14.51,37.72-14.51,17.89,0,29.69,6.44,37.49,14.27a54.08,54.08,0,0,1,9.64,13.37,68.36,68.36,0,0,1,3.9,9.21C182.05,131.8,182.72,142.28,181.39,153.67Z" style="fill:#fff"/><path d="M166,102l.06.14c-7.8-8.75-19.45-16.48-36.87-16.48s-29,7.63-36.81,16.35h0s-26.93,22.75-13.19,63.67c2.17,8.87,5.71,17.4,11,23.55h0c9.51,11,23.15,15.48,31.52,17.28a35.74,35.74,0,0,0,6.52.79h1.88a35.74,35.74,0,0,0,6.52-.79c8.37-1.8,22-6.3,31.53-17.29,5.35-6.21,8.9-14.82,11.08-23.76h0C192.86,124.65,166,102,166,102Zm10.61,59.67A196.37,196.37,0,0,0,157,157.09a159.64,159.64,0,0,0-27.77-2.64c-20.28,0-39.58,4.91-47.89,7.34-.88-7-3.06-28.43,3.19-42,9.71,4.13,27.75,4.83,44.7,4.83,18.81,0,33.27-.71,43.86-5.56,6.67,13.51,4.44,35.56,3.55,42.59Z" style="fill:#402843"/><path d="M179.93,162.64c-2.09,9.93-5.82,19.7-11.72,26.56-9.49,11-23.16,15.49-31.53,17.29a35.74,35.74,0,0,1-6.52.79h-1.88a35.74,35.74,0,0,1-6.52-.79c-8.37-1.8-22-6.3-31.52-17.28,12.26,3.56,32.87,7.89,48.54,2.94,19.48-6.18,19-27.55,18.21-35.06A192.52,192.52,0,0,1,179.93,162.64Z" style="fill:#3f244c;opacity:0.20000000298023224;isolation:isolate"/><path d="M96.9,144.42s1-2.75,6-2.54,13,4.76,13,4.76-5.81,6.2-12,5.34S96.9,144.42,96.9,144.42Z" style="fill:#f60"/><path d="M161.54,144.42s-1-2.75-6-2.54-13,4.76-13,4.76,5.82,6.2,12,5.34S161.54,144.42,161.54,144.42Z" style="fill:#f60"/><path d="M96,140.93a14.9,14.9,0,0,1,12.42-2.23,56.07,56.07,0,0,1,12.48,4.5s-6.37-8.2-15-8.2S96,140.93,96,140.93Z" style="fill:#402843"/><path d="M162.49,140.93a14.88,14.88,0,0,0-12.41-2.23,56,56,0,0,0-12.49,4.5s6.32-8.23,14.94-8.23S162.49,140.93,162.49,140.93Z" style="fill:#402843"/><polygon points="124.13 227.69 119.32 230.09 118.57 229.61 78.08 204.06 79.22 203.36 87.08 198.57 100.42 209.06 123.2 226.96 124.13 227.69" style="fill:#ff0"/><polygon points="179.6 203.6 115.55 237.85 107.83 235.78 118.57 229.61 118.58 229.61 123.2 226.96 151.21 210.89 151.22 210.89 172 198.96 179.22 203.36 179.6 203.6" style="fill:#ff0"/><rect x="49.67" y="108.03" width="13.73" height="67.66" rx="6.65" transform="translate(-22.8 11.37) rotate(-9.57)" style="fill:#402843"/><rect x="48.83" y="117.18" width="5.32" height="3.24" rx="1.38" transform="translate(-19.03 10.21) rotate(-9.57)" style="fill:#fff"/><rect x="50.04" y="124.29" width="5.32" height="3.24" rx="1.38" transform="translate(-20.2 10.51) rotate(-9.57)" style="fill:#fff"/><rect x="51.23" y="131.4" width="5.32" height="3.24" rx="1.38" transform="translate(-21.36 10.81) rotate(-9.57)" style="fill:#fff"/><rect x="52.44" y="138.51" width="5.32" height="3.24" rx="1.38" transform="translate(-22.53 11.11) rotate(-9.57)" style="fill:#fff"/><rect x="53.64" y="145.62" width="5.32" height="3.24" rx="1.38" transform="translate(-23.7 11.41) rotate(-9.57)" style="fill:#fff"/><rect x="54.84" y="152.73" width="5.32" height="3.24" rx="1.38" transform="translate(-24.86 11.71) rotate(-9.57)" style="fill:#fff"/><path d="M39.86,163l38.54-6.5h0l0,.16a4.87,4.87,0,0,1-4,5.62h0l-28.95,4.88a4.87,4.87,0,0,1-5.58-4l0-.15h0Z" style="fill:#402843"/><rect x="58.64" y="168.08" width="13.73" height="53.95" transform="matrix(0.99, -0.17, 0.17, 0.99, -31.52, 13.6)" style="fill:#402843"/><rect x="167.91" y="135" width="67.66" height="13.73" rx="6.65" transform="translate(28.31 317.21) rotate(-80.43)" style="fill:#402843"/><rect x="205.17" y="116.13" width="3.24" height="5.32" rx="1.38" transform="translate(55.28 302.95) rotate(-80.43)" style="fill:#fff"/><rect x="203.97" y="123.23" width="3.24" height="5.32" rx="1.38" transform="matrix(0.17, -0.99, 0.99, 0.17, 47.27, 307.7)" style="fill:#fff"/><rect x="202.77" y="130.35" width="3.24" height="5.32" rx="1.38" transform="translate(39.25 312.44) rotate(-80.43)" style="fill:#fff"/><rect x="201.58" y="137.46" width="3.24" height="5.32" rx="1.38" transform="matrix(0.17, -0.99, 0.99, 0.17, 31.24, 317.19)" style="fill:#fff"/><rect x="200.38" y="144.58" width="3.24" height="5.32" rx="1.38" transform="matrix(0.17, -0.99, 0.99, 0.17, 23.23, 321.95)" style="fill:#fff"/><rect x="199.19" y="151.69" width="3.24" height="5.32" rx="1.38" transform="matrix(0.17, -0.99, 0.99, 0.17, 15.22, 326.7)" style="fill:#fff"/><path d="M212.83,167.16l-29-4.88a4.88,4.88,0,0,1-4-5.62h0l0-.16h0l38.58,6.5h0l0,.16a4.87,4.87,0,0,1-5.62,4Z" style="fill:#402843"/><rect x="165.82" y="188.19" width="53.95" height="13.73" transform="translate(-31.59 352.74) rotate(-80.43)" style="fill:#402843"/><path d="M90.24,114.59S103,89.3,128.59,89.77c-13.24,4.29-24.59,18.29-26.13,26.89A40.27,40.27,0,0,1,90.24,114.59Z" style="fill:#fff"/></g></g></svg>